<svg width="731" height="411" viewBox="0 0 731 411" fill="none" xmlns="http://www.w3.org/2000/svg">
<rect width="731" height="411" fill="#F4F4F4"/>
<path d="M421.025 89.8848H309.11V330.813H421.025V89.8848Z" fill="#C1C7CD"/>
<path d="M421.025 85.2178L309.041 85.5V113L421.025 113.197V85.2178Z" fill="#A2A9B0"/>
<path d="M536.049 330.809H421.025V96.0981L536.041 110L536.049 330.809Z" fill="#A2A9B0"/>
<path d="M536.05 110.09L421.025 113.199V85.2201L536.05 82.1113V110.09Z" fill="#878D96"/>
<path d="M536.041 330.813H567.54V119.418L536.041 110V330.813Z" fill="#DDE1E6"/>
<path d="M194.087 330.813H163V119.418L194.087 110.092V330.813Z" fill="#697077"/>
<path d="M480.091 330.805H476.982V83.7066L480.091 83.6133V330.805Z" fill="#697077"/>
<path d="M194.087 330.808H309.111L309.041 96.5L194.087 110.087V330.808Z" fill="#DDE1E6"/>
<path d="M194.041 110.42L309.041 113V85.5L194.041 82V110.42Z" fill="#C1C7CD"/>
<path d="M253.152 330.805H250.043V83.6133L253.152 83.7066V330.805Z" fill="#A2A9B0"/>
<path d="M200.305 116.488L243.827 117.731V324.603H200.305V116.488Z" fill="#C1C7CD"/>
<path d="M302.893 119.423V324.6H259.371V118.18L302.893 119.423Z" fill="#C1C7CD"/>
<path d="M535.953 82.1737L567.041 91.5V119.479L536.041 110L535.953 82.1737Z" fill="#C1C7CD"/>
<path d="M194.041 82L163 91.4379V119.417L194.041 110.385V82Z" fill="#878D96"/>
<path d="M529.833 116.488L486.311 117.731V324.603H529.833V116.488Z" fill="#878D96"/>
<path d="M427.244 119.423V324.6H470.767V118.18L427.244 119.423Z" fill="#878D96"/>
<path d="M408.589 125.639H321.544V293.511H408.589V125.639Z" fill="white"/>
<path d="M389.935 203.353H388.381V209.571H389.935V203.353Z" fill="#D0D4D7"/>
<path d="M382.163 203.353H380.609V209.571H382.163V203.353Z" fill="#D0D4D7"/>
<path d="M394.597 194.027H393.043V220.451H394.597V194.027Z" fill="#D0D4D7"/>
<path d="M377.5 194.027H375.946V220.451H377.5V194.027Z" fill="#D0D4D7"/>
<path d="M386.827 160.607H383.718V192.472H386.827V160.607Z" fill="#D0D4D7"/>
<path d="M386.438 194.027H384.106V201.799H386.438V194.027Z" fill="#D0D4D7"/>
<path d="M394.597 178.485H393.043L394.597 161.387H396.152L394.597 178.485Z" fill="#D0D4D7"/>
<path d="M399.262 138.067H371.283V141.176H399.262V138.067Z" fill="#D0D4D7"/>
<path d="M388.381 141.181H382.164V159.834H388.381V141.181Z" fill="#D0D4D7"/>
<path d="M399.262 159.826H371.283V161.381H399.262V159.826Z" fill="#D0D4D7"/>
<path d="M399.262 178.479H371.283V180.033H399.262V178.479Z" fill="#D0D4D7"/>
<path d="M396.93 192.473H373.615V194.027H396.93V192.473Z" fill="#D0D4D7"/>
<path d="M396.93 201.8H373.615V203.355H396.93V201.8Z" fill="#D0D4D7"/>
<path d="M396.93 209.566H373.615V211.121H396.93V209.566Z" fill="#D0D4D7"/>
<path d="M396.93 215.786H373.615V217.34H396.93V215.786Z" fill="#D0D4D7"/>
<path d="M396.152 220.453H391.489V231.334H396.152V220.453Z" fill="#D0D4D7"/>
<path d="M379.054 220.453H374.391V231.334H379.054V220.453Z" fill="#D0D4D7"/>
<path d="M388.381 218.893H382.164V231.328H388.381V218.893Z" fill="#D0D4D7"/>
<path d="M388.381 159.834H394.598V141.181H391.49V153.616L388.381 159.834Z" fill="#D0D4D7"/>
<path d="M382.163 159.834H375.946V141.181H379.055V153.616L382.163 159.834Z" fill="#D0D4D7"/>
<path d="M391.489 161.387H389.935V178.485H391.489V161.387Z" fill="#D0D4D7"/>
<path d="M375.945 178.485H377.5L375.945 161.387H374.391L375.945 178.485Z" fill="#D0D4D7"/>
<path d="M380.609 161.387H379.055V178.485H380.609V161.387Z" fill="#D0D4D7"/>
<path d="M380.609 180.033H379.055V192.468H380.609V180.033Z" fill="#D0D4D7"/>
<path d="M391.489 180.033H389.935V192.468H391.489V180.033Z" fill="#D0D4D7"/>
<path d="M389.935 131.846H380.609V138.064H389.935V131.846Z" fill="#D0D4D7"/>
<path d="M383.718 130.301H382.164V131.855H383.718V130.301Z" fill="#D0D4D7"/>
<path d="M388.38 130.301H386.826V131.855H388.38V130.301Z" fill="#D0D4D7"/>
<path d="M389.935 194.027H388.381V201.799H389.935V194.027Z" fill="#D0D4D7"/>
<path d="M382.163 194.027H380.609V201.799H382.163V194.027Z" fill="#D0D4D7"/>
<path d="M389.935 211.126L388.769 215.79H381.775L380.609 211.126H382.163L383.718 214.235H386.826L388.381 211.126H389.935Z" fill="#D0D4D7"/>
<path d="M396.152 136.51V139.619H391.489V131.847H394.598V134.955L396.152 136.51Z" fill="#D0D4D7"/>
<path d="M374.391 136.509V139.618H379.054V131.846H375.945V134.955L374.391 136.509Z" fill="#D0D4D7"/>
<path d="M399.262 125.634H371.283V131.852H399.262V125.634Z" fill="#D0D4D7"/>
<path d="M349.523 203.353H347.969V209.571H349.523V203.353Z" fill="#D0D4D7"/>
<path d="M341.751 203.353H340.196V209.571H341.751V203.353Z" fill="#D0D4D7"/>
<path d="M354.186 194.027H352.632V220.451H354.186V194.027Z" fill="#D0D4D7"/>
<path d="M337.089 194.027H335.534V220.451H337.089V194.027Z" fill="#D0D4D7"/>
<path d="M346.415 160.607H343.306V192.472H346.415V160.607Z" fill="#D0D4D7"/>
<path d="M346.026 194.027H343.695V201.799H346.026V194.027Z" fill="#D0D4D7"/>
<path d="M354.186 178.486H352.632L354.186 161.388H355.741L354.186 178.486Z" fill="#D0D4D7"/>
<path d="M358.849 138.067H330.871V141.176H358.849V138.067Z" fill="#D0D4D7"/>
<path d="M347.969 141.181H341.751V159.834H347.969V141.181Z" fill="#D0D4D7"/>
<path d="M358.849 159.827H330.871V161.381H358.849V159.827Z" fill="#D0D4D7"/>
<path d="M358.849 178.479H330.871V180.033H358.849V178.479Z" fill="#D0D4D7"/>
<path d="M356.518 192.473H333.202V194.028H356.518V192.473Z" fill="#D0D4D7"/>
<path d="M356.518 201.8H333.202V203.355H356.518V201.8Z" fill="#D0D4D7"/>
<path d="M356.518 209.566H333.202V211.121H356.518V209.566Z" fill="#D0D4D7"/>
<path d="M356.518 215.786H333.202V217.34H356.518V215.786Z" fill="#D0D4D7"/>
<path d="M355.741 220.454H351.078V231.334H355.741V220.454Z" fill="#D0D4D7"/>
<path d="M338.643 220.454H333.98V231.334H338.643V220.454Z" fill="#D0D4D7"/>
<path d="M347.969 218.893H341.751V231.328H347.969V218.893Z" fill="#D0D4D7"/>
<path d="M347.969 159.834H354.186V141.181H351.078V153.616L347.969 159.834Z" fill="#D0D4D7"/>
<path d="M341.752 159.834H335.534V141.181H338.643V153.616L341.752 159.834Z" fill="#D0D4D7"/>
<path d="M351.078 161.388H349.523V178.486H351.078V161.388Z" fill="#D0D4D7"/>
<path d="M335.534 178.486H337.089L335.534 161.388H333.98L335.534 178.486Z" fill="#D0D4D7"/>
<path d="M340.198 161.388H338.644V178.486H340.198V161.388Z" fill="#D0D4D7"/>
<path d="M340.198 180.033H338.644V192.468H340.198V180.033Z" fill="#D0D4D7"/>
<path d="M351.078 180.033H349.523V192.468H351.078V180.033Z" fill="#D0D4D7"/>
<path d="M349.523 131.847H340.196V138.064H349.523V131.847Z" fill="#D0D4D7"/>
<path d="M343.306 130.301H341.751V131.855H343.306V130.301Z" fill="#D0D4D7"/>
<path d="M347.968 130.301H346.414V131.855H347.968V130.301Z" fill="#D0D4D7"/>
<path d="M349.523 194.027H347.969V201.799H349.523V194.027Z" fill="#D0D4D7"/>
<path d="M341.751 194.027H340.196V201.799H341.751V194.027Z" fill="#D0D4D7"/>
<path d="M349.523 211.126L348.357 215.79H341.362L340.196 211.126H341.751L343.305 214.235H346.414L347.968 211.126H349.523Z" fill="#D0D4D7"/>
<path d="M355.741 136.51V139.619H351.078V131.847H354.186V134.955L355.741 136.51Z" fill="#D0D4D7"/>
<path d="M333.98 136.51V139.619H338.643V131.847H335.534V134.955L333.98 136.51Z" fill="#D0D4D7"/>
<path d="M358.849 125.634H330.871V131.852H358.849V125.634Z" fill="#D0D4D7"/>
<path d="M369.731 209.566H368.176V215.784H369.731V209.566Z" fill="#343A3F"/>
<path d="M361.958 209.566H360.404V215.784H361.958V209.566Z" fill="#343A3F"/>
<path d="M374.393 200.247H372.839V226.671H374.393V200.247Z" fill="#343A3F"/>
<path d="M357.296 200.247H355.742V226.671H357.296V200.247Z" fill="#343A3F"/>
<path d="M366.621 166.819H363.513V198.684H366.621V166.819Z" fill="#343A3F"/>
<path d="M366.234 200.247H363.902V208.018H366.234V200.247Z" fill="#343A3F"/>
<path d="M374.393 184.698H372.839L374.393 167.6H375.948L374.393 184.698Z" fill="#343A3F"/>
<path d="M379.058 144.288H351.079V147.396H379.058V144.288Z" fill="#343A3F"/>
<path d="M368.177 147.394H361.959V166.046H368.177V147.394Z" fill="#343A3F"/>
<path d="M379.058 166.046H351.079V167.601H379.058V166.046Z" fill="#343A3F"/>
<path d="M379.058 184.7H351.079V186.254H379.058V184.7Z" fill="#343A3F"/>
<path d="M376.726 198.687H353.41V200.241H376.726V198.687Z" fill="#343A3F"/>
<path d="M376.726 208.02H353.41V209.574H376.726V208.02Z" fill="#343A3F"/>
<path d="M376.726 215.786H353.41V217.34H376.726V215.786Z" fill="#343A3F"/>
<path d="M376.726 222H353.41V223.554H376.726V222Z" fill="#343A3F"/>
<path d="M375.948 226.666H371.285V237.546H375.948V226.666Z" fill="#343A3F"/>
<path d="M358.85 226.666H354.187V237.546H358.85V226.666Z" fill="#343A3F"/>
<path d="M368.177 225.112H361.959V237.547H368.177V225.112Z" fill="#343A3F"/>
<path d="M368.176 166.046H374.394V147.394H371.285V159.829L368.176 166.046Z" fill="#343A3F"/>
<path d="M361.959 166.046H355.742V147.394H358.85V159.829L361.959 166.046Z" fill="#343A3F"/>
<path d="M371.285 167.6H369.731V184.698H371.285V167.6Z" fill="#343A3F"/>
<path d="M355.741 184.698H357.296L355.741 167.6H354.187L355.741 184.698Z" fill="#343A3F"/>
<path d="M360.405 167.6H358.851V184.698H360.405V167.6Z" fill="#343A3F"/>
<path d="M360.405 186.253H358.851V198.688H360.405V186.253Z" fill="#343A3F"/>
<path d="M371.285 186.253H369.731V198.688H371.285V186.253Z" fill="#343A3F"/>
<path d="M369.73 138.067H360.404V144.284H369.73V138.067Z" fill="#343A3F"/>
<path d="M363.513 136.514H361.959V138.068H363.513V136.514Z" fill="#343A3F"/>
<path d="M368.176 136.514H366.622V138.068H368.176V136.514Z" fill="#343A3F"/>
<path d="M369.731 200.247H368.176V208.018H369.731V200.247Z" fill="#343A3F"/>
<path d="M361.958 200.247H360.404V208.018H361.958V200.247Z" fill="#343A3F"/>
<path d="M369.73 217.339L368.564 222.002H361.57L360.404 217.339H361.958L363.513 220.448H366.621L368.176 217.339H369.73Z" fill="#343A3F"/>
<path d="M375.948 142.73V145.839H371.285V138.067H374.394V141.176L375.948 142.73Z" fill="#343A3F"/>
<path d="M354.187 142.73V145.839H358.85V138.067H355.741V141.176L354.187 142.73Z" fill="#343A3F"/>
<path d="M379.058 125.634H351.079V138.069H379.058V125.634Z" fill="#343A3F"/>
</svg>
