<svg width="731" height="411" viewBox="0 0 731 411" fill="none" xmlns="http://www.w3.org/2000/svg">
<rect width="731" height="411" fill="#F4F4F4"/>
<path d="M477.085 126H260.915C250.468 126 242 134.842 242 145.75V264.25C242 275.158 250.468 284 260.915 284H477.085C487.532 284 496 275.158 496 264.25V145.75C496 134.842 487.532 126 477.085 126Z" fill="#A2A9B0"/>
<path d="M199.46 126H80.78C69.8558 126 61 134.87 61 145.812V264.681C61 275.622 69.8558 284.492 80.78 284.492H199.46C210.384 284.492 219.24 275.622 219.24 264.681V145.812C219.24 134.87 210.384 126 199.46 126Z" fill="#A2A9B0"/>
<path d="M651 126H537C526.507 126 518 134.842 518 145.75V264.25C518 275.158 526.507 284 537 284H651C661.493 284 670 275.158 670 264.25V145.75C670 134.842 661.493 126 651 126Z" fill="#A2A9B0"/>
<path d="M188.155 148.531H92.0806C87.3989 148.531 83.6035 152.333 83.6035 157.022V253.249C83.6035 257.938 87.3989 261.74 92.0806 261.74H188.155C192.837 261.74 196.632 257.938 196.632 253.249V157.022C196.632 152.333 192.837 148.531 188.155 148.531Z" fill="white"/>
<path d="M369.043 148.531H272.969C268.288 148.531 264.492 152.333 264.492 157.022V253.249C264.492 257.938 268.288 261.74 272.969 261.74H369.043C373.725 261.74 377.521 257.938 377.521 253.249V157.022C377.521 152.333 373.725 148.531 369.043 148.531Z" fill="white"/>
<path d="M655.95 149H547.05C543.709 149 541 152.794 541 157.475V253.525C541 258.206 543.709 262 547.05 262H655.95C659.291 262 662 258.206 662 253.525V157.475C662 152.794 659.291 149 655.95 149Z" fill="url(#paint0_linear_3135_1038)"/>
<path d="M465.116 148.531H408.602C403.92 148.531 400.125 152.333 400.125 157.022V253.249C400.125 257.938 403.92 261.74 408.602 261.74H465.116C469.798 261.74 473.593 257.938 473.593 253.249V157.022C473.593 152.333 469.798 148.531 465.116 148.531Z" fill="white"/>
<path d="M106.426 179.36H155.409V220.242H112.077C108.955 220.242 106.426 217.709 106.426 214.582V179.36Z" fill="#4D5358"/>
<path d="M112.077 171.189H149.758C152.88 171.189 155.409 173.722 155.409 176.849V179.368H106.426V176.849C106.426 173.722 108.955 171.189 112.077 171.189Z" fill="url(#paint1_linear_3135_1038)"/>
<path d="M123.114 188.076H147.246" stroke="#F4F4F4" stroke-width="1.73112" stroke-linecap="round" stroke-linejoin="round"/>
<path d="M118.282 191.299L115.047 188.072L118.282 184.832" stroke="#F4F4F4" stroke-width="1.73112" stroke-linecap="round" stroke-linejoin="round"/>
<path d="M114.594 196.231H147.245" stroke="url(#paint2_linear_3135_1038)" stroke-width="1.73112" stroke-linecap="round" stroke-linejoin="round"/>
<path d="M114.594 204.416H133.823" stroke="url(#paint3_linear_3135_1038)" stroke-width="1.73112" stroke-linecap="round" stroke-linejoin="round"/>
<path d="M114.594 212.601H129.824" stroke="url(#paint4_linear_3135_1038)" stroke-width="1.73112" stroke-linecap="round" stroke-linejoin="round"/>
<path d="M154.976 244.029C168.218 244.029 178.952 233.277 178.952 220.014C178.952 206.752 168.218 196 154.976 196C141.734 196 131 206.752 131 220.014C131 233.277 141.734 244.029 154.976 244.029Z" fill="#8A3FFC"/>
<path d="M144.888 229.439C144.699 229.439 144.509 229.379 144.343 229.272C144.177 229.166 144.058 229.011 143.987 228.833C143.916 228.655 143.892 228.453 143.928 228.263C143.963 228.073 144.058 227.895 144.201 227.764C144.343 227.633 144.509 227.538 144.699 227.491C144.888 227.455 145.078 227.467 145.268 227.55C145.458 227.633 145.6 227.752 145.707 227.907C145.813 228.061 145.873 228.251 145.873 228.453C145.873 228.714 145.766 228.964 145.588 229.142C145.41 229.32 145.161 229.427 144.9 229.427L144.888 229.439ZM144.888 225.531C144.307 225.531 143.75 225.698 143.264 226.03C142.778 226.363 142.41 226.814 142.185 227.348C141.959 227.883 141.9 228.477 142.019 229.047C142.137 229.617 142.41 230.139 142.825 230.543C143.24 230.959 143.75 231.232 144.319 231.351C144.888 231.47 145.469 231.41 146.015 231.185C146.548 230.959 147.011 230.591 147.331 230.104C147.651 229.617 147.829 229.059 147.829 228.477C147.829 227.705 147.521 226.956 146.975 226.41C146.43 225.864 145.683 225.555 144.912 225.555L144.888 225.531Z" fill="white"/>
<path d="M164.395 209.903C164.585 209.903 164.775 209.962 164.941 210.069C165.107 210.176 165.225 210.33 165.297 210.508C165.368 210.687 165.391 210.888 165.356 211.078C165.32 211.269 165.225 211.447 165.083 211.577C164.941 211.72 164.775 211.803 164.585 211.85C164.395 211.898 164.206 211.874 164.016 211.791C163.838 211.72 163.684 211.589 163.577 211.435C163.471 211.28 163.411 211.09 163.411 210.888C163.411 210.627 163.518 210.378 163.696 210.2C163.874 210.021 164.123 209.915 164.384 209.915L164.395 209.903ZM152.099 220.651H155.028L163.02 213.442C163.435 213.68 163.909 213.81 164.395 213.81C164.976 213.81 165.534 213.644 166.02 213.311C166.506 212.991 166.874 212.527 167.099 211.993C167.324 211.459 167.384 210.865 167.265 210.295C167.146 209.725 166.874 209.202 166.459 208.798C166.044 208.382 165.534 208.109 164.965 207.99C164.395 207.872 163.814 207.931 163.269 208.157C162.735 208.382 162.273 208.751 161.953 209.238C161.633 209.725 161.455 210.283 161.455 210.865C161.455 211.245 161.526 211.637 161.68 211.993L152.087 220.639L152.099 220.651Z" fill="white"/>
<path d="M163.293 215.822L161.538 217.39C164.609 218.031 166.34 219.017 166.34 219.67C166.34 220.704 161.894 222.604 154.637 222.604C147.38 222.604 142.933 220.704 142.933 219.67C142.933 218.637 146.917 216.951 153.498 216.737L155.668 214.789H154.648C150.285 214.789 145.874 215.49 143.312 216.844C143.727 215.169 144.51 213.601 145.601 212.259C146.692 210.917 148.067 209.836 149.621 209.088C151.174 208.34 152.882 207.948 154.601 207.936C156.332 207.936 158.028 208.292 159.593 209.029L160.411 207.259C158.609 206.416 156.641 205.988 154.648 206C151.032 206 147.557 207.437 144.996 210.003C142.435 212.568 141 216.048 141 219.67C141 222.877 147.83 224.552 154.648 224.552C159.012 224.552 163.423 223.851 165.985 222.497C165.57 224.172 164.787 225.74 163.696 227.082C162.605 228.424 161.23 229.504 159.676 230.253C158.123 231.001 156.415 231.393 154.696 231.405C152.965 231.405 151.269 231.048 149.704 230.312L148.885 232.082C150.688 232.925 152.656 233.353 154.648 233.341C158.265 233.341 161.739 231.904 164.301 229.338C166.862 226.773 168.297 223.293 168.297 219.67C168.297 217.925 166.245 216.63 163.293 215.822Z" fill="white"/>
<path d="M287.37 174.649L282.863 170.135V170.05L287.37 165.522" stroke="#6F6F6F" stroke-width="3.46223" stroke-linecap="round" stroke-linejoin="round"/>
<path d="M354.639 242.575L359.16 238.061V237.976L354.639 233.448" stroke="#6F6F6F" stroke-width="3.46223" stroke-linecap="round" stroke-linejoin="round"/>
<path d="M296.992 169.769H318.185" stroke="#8D8D8D" stroke-width="3.46223" stroke-linecap="round" stroke-linejoin="round"/>
<path d="M302.645 181.08H330.902" stroke="#8D8D8D" stroke-width="3.46223" stroke-linecap="round" stroke-linejoin="round"/>
<path d="M321.011 192.42H349.268" stroke="#A8A8A8" stroke-width="3.46223" stroke-linecap="round" stroke-linejoin="round"/>
<path d="M321.011 203.732H349.268" stroke="#A8A8A8" stroke-width="3.46223" stroke-linecap="round" stroke-linejoin="round"/>
<path d="M302.645 215.058H330.902" stroke="#8D8D8D" stroke-width="3.46223" stroke-linecap="round" stroke-linejoin="round"/>
<path d="M292.751 226.37H321.008" stroke="#8D8D8D" stroke-width="3.46223" stroke-linecap="round" stroke-linejoin="round"/>
<path d="M302.645 237.696H347.856" stroke="#8D8D8D" stroke-width="3.46223" stroke-linecap="round" stroke-linejoin="round"/>
<path d="M422.731 189.612V169.8" stroke="#E0E0E0" stroke-width="3.46223" stroke-miterlimit="10"/>
<path d="M452.401 189.605H422.731" stroke="#E0E0E0" stroke-width="3.46223" stroke-miterlimit="10"/>
<path d="M426.971 213.659V237.716" stroke="#E0E0E0" stroke-width="3.46223" stroke-miterlimit="10"/>
<path d="M426.971 213.659H456.641" stroke="#E0E0E0" stroke-width="3.46223" stroke-miterlimit="10"/>
<path d="M452.405 169.8V236.31H456.644" stroke="#E0E0E0" stroke-width="3.46223" stroke-miterlimit="10"/>
<path d="M446.742 222.138H455.219C456.78 222.138 458.045 220.871 458.045 219.307V207.987C458.045 206.424 456.78 205.156 455.219 205.156H446.742C445.181 205.156 443.916 206.424 443.916 207.987V219.307C443.916 220.871 445.181 222.138 446.742 222.138Z" fill="#8A3FFC"/>
<path d="M424.134 243.36H429.786C431.346 243.36 432.611 242.093 432.611 240.53V234.87C432.611 233.307 431.346 232.039 429.786 232.039H424.134C422.574 232.039 421.308 233.307 421.308 234.87V240.53C421.308 242.093 422.574 243.36 424.134 243.36Z" fill="#C1C7CD"/>
<path d="M449.568 244.776H455.219C456.78 244.776 458.045 243.509 458.045 241.946V233.455C458.045 231.892 456.78 230.625 455.219 230.625H449.568C448.007 230.625 446.742 231.892 446.742 233.455V241.946C446.742 243.509 448.007 244.776 449.568 244.776Z" fill="#8A3FFC"/>
<path d="M424.134 220.708H429.786C431.346 220.708 432.611 219.441 432.611 217.878V209.388C432.611 207.825 431.346 206.557 429.786 206.557H424.134C422.574 206.557 421.308 207.825 421.308 209.388V217.878C421.308 219.441 422.574 220.708 424.134 220.708Z" fill="#525252"/>
<path d="M446.742 196.67H455.219C456.78 196.67 458.045 195.403 458.045 193.84V185.35C458.045 183.786 456.78 182.519 455.219 182.519H446.742C445.181 182.519 443.916 183.786 443.916 185.35V193.84C443.916 195.403 445.181 196.67 446.742 196.67Z" fill="#4D5358"/>
<path d="M446.742 174.033H455.219C456.78 174.033 458.045 172.766 458.045 171.203V168.372C458.045 166.809 456.78 165.542 455.219 165.542H446.742C445.181 165.542 443.916 166.809 443.916 168.372V171.203C443.916 172.766 445.181 174.033 446.742 174.033Z" fill="#8A3FFC"/>
<path d="M417.072 174.033H428.374C429.935 174.033 431.2 172.766 431.2 171.203V168.372C431.2 166.809 429.935 165.542 428.374 165.542H417.072C415.511 165.542 414.246 166.809 414.246 168.372V171.203C414.246 172.766 415.511 174.033 417.072 174.033Z" fill="#C1C7CD"/>
<path d="M422.733 193.834C425.074 193.834 426.971 191.934 426.971 189.589C426.971 187.244 425.074 185.344 422.733 185.344C420.392 185.344 418.494 187.244 418.494 189.589C418.494 191.934 420.392 193.834 422.733 193.834Z" fill="#8A3FFC"/>
<path d="M554.182 228.409V237.522" stroke="#8D8D8D" stroke-width="3.46223" stroke-miterlimit="10"/>
<path d="M554.182 201.038V210.151" stroke="#8D8D8D" stroke-width="3.46223" stroke-miterlimit="10"/>
<path d="M554.182 182.795V196.479" stroke="#8D8D8D" stroke-width="3.46223" stroke-miterlimit="10"/>
<path d="M559.833 183.916V242.076" stroke="#8D8D8D" stroke-width="3.46223" stroke-miterlimit="10"/>
<path d="M565.485 234.101V246.639" stroke="#8D8D8D" stroke-width="3.46223" stroke-miterlimit="10"/>
<path d="M565.485 196.466V229.565" stroke="#8D8D8D" stroke-width="3.46223" stroke-miterlimit="10"/>
<path d="M565.485 173.667V191.907" stroke="#8D8D8D" stroke-width="3.46223" stroke-miterlimit="10"/>
<path d="M571.136 185.081V203.322" stroke="#8D8D8D" stroke-width="3.46223" stroke-miterlimit="10"/>
<path d="M576.787 164.538V206.736" stroke="#8D8D8D" stroke-width="3.46223" stroke-miterlimit="10"/>
<path d="M582.44 179.359V212.43" stroke="#8D8D8D" stroke-width="3.46223" stroke-miterlimit="10"/>
<path d="M588.089 175.938V216.99" stroke="#8D8D8D" stroke-width="3.46223" stroke-miterlimit="10"/>
<path d="M593.742 167.974V221.564" stroke="#8D8D8D" stroke-width="3.46223" stroke-miterlimit="10"/>
<path d="M599.393 210.963V226.119" stroke="#8D8D8D" stroke-width="3.46223" stroke-miterlimit="10"/>
<path d="M599.393 183.916V205.581" stroke="#8D8D8D" stroke-width="3.46223" stroke-miterlimit="10"/>
<path d="M605.044 177.073V230.663" stroke="#8D8D8D" stroke-width="3.46223" stroke-miterlimit="10"/>
<path d="M610.693 182.795V234.121" stroke="#8D8D8D" stroke-width="3.46223" stroke-miterlimit="10"/>
<path d="M616.349 206.745V237.524" stroke="#8D8D8D" stroke-width="3.46223" stroke-miterlimit="10"/>
<path d="M622 183.916V246.633" stroke="#8D8D8D" stroke-width="3.46223" stroke-miterlimit="10"/>
<path d="M559.833 164.538V179.368" stroke="#8D8D8D" stroke-width="3.46223" stroke-miterlimit="10"/>
<path d="M588.089 172.53V167.974" stroke="#8D8D8D" stroke-width="3.46223" stroke-miterlimit="10"/>
<path d="M599.393 180.503V171.956" stroke="#8D8D8D" stroke-width="3.46223" stroke-miterlimit="10"/>
<path d="M616.349 202.172V194.771" stroke="#8D8D8D" stroke-width="3.46223" stroke-miterlimit="10"/>
<defs>
<linearGradient id="paint0_linear_3135_1038" x1="541" y1="205.5" x2="662" y2="205.5" gradientUnits="userSpaceOnUse">
<stop offset="0.2" stop-color="white"/>
<stop offset="0.27" stop-color="white" stop-opacity="0.98"/>
<stop offset="0.35" stop-color="white" stop-opacity="0.93"/>
<stop offset="0.44" stop-color="white" stop-opacity="0.83"/>
<stop offset="0.53" stop-color="white" stop-opacity="0.71"/>
<stop offset="0.62" stop-color="white" stop-opacity="0.54"/>
<stop offset="0.72" stop-color="white" stop-opacity="0.34"/>
<stop offset="0.82" stop-color="white" stop-opacity="0.1"/>
<stop offset="0.86" stop-color="white" stop-opacity="0"/>
</linearGradient>
<linearGradient id="paint1_linear_3135_1038" x1="106.426" y1="175.279" x2="155.409" y2="175.279" gradientUnits="userSpaceOnUse">
<stop stop-color="#C1C7CD"/>
<stop offset="0.44" stop-color="#BEC4CA"/>
<stop offset="0.71" stop-color="#B5BCC2"/>
<stop offset="0.94" stop-color="#A7AEB4"/>
<stop offset="1" stop-color="#A2A9B0"/>
</linearGradient>
<linearGradient id="paint2_linear_3135_1038" x1="-nan" y1="-nan" x2="-nan" y2="-nan" gradientUnits="userSpaceOnUse">
<stop offset="0.21" stop-color="#F4F4F4"/>
<stop offset="1" stop-color="#F4F4F4" stop-opacity="0"/>
</linearGradient>
<linearGradient id="paint3_linear_3135_1038" x1="-nan" y1="-nan" x2="-nan" y2="-nan" gradientUnits="userSpaceOnUse">
<stop offset="0.29" stop-color="#F4F4F4"/>
<stop offset="1" stop-color="#F4F4F4" stop-opacity="0"/>
</linearGradient>
<linearGradient id="paint4_linear_3135_1038" x1="-nan" y1="-nan" x2="-nan" y2="-nan" gradientUnits="userSpaceOnUse">
<stop offset="0.29" stop-color="#F4F4F4"/>
<stop offset="1" stop-color="#F4F4F4" stop-opacity="0"/>
</linearGradient>
</defs>
</svg>
