<svg width="731" height="411" viewBox="0 0 731 411" fill="none" xmlns="http://www.w3.org/2000/svg">
<rect width="731" height="411" fill="#F4F4F4"/>
<path d="M181.044 309.334L595.713 309.334C602.869 309.334 608.671 303.532 608.671 296.376C608.671 289.219 602.869 283.417 595.713 283.417L181.044 283.417C173.887 283.417 168.086 289.219 168.086 296.376C168.086 303.532 173.887 309.334 181.044 309.334Z" fill="#697077"/>
<path d="M181.044 309.334H349.504C356.66 309.334 362.462 303.532 362.462 296.376C362.462 289.219 356.66 283.417 349.504 283.417H181.044C173.888 283.417 168.086 289.219 168.086 296.376C168.086 303.532 173.888 309.334 181.044 309.334Z" fill="#878D96"/>
<path d="M392.525 102H135.69C126.748 102 120.14 110.552 122.472 119.234L163.81 273.31C165.365 279.271 170.807 283.417 177.027 283.417H433.862C442.804 283.417 449.412 274.865 447.08 266.183L405.743 112.108C404.188 106.147 398.745 102 392.525 102Z" fill="#A2A9B0"/>
<path d="M384.262 121.833H143.286L181.275 263.584H422.251L384.262 121.833Z" fill="#343A3F"/>
<path d="M146.971 136.009H387.947L384.262 121.833H143.286L146.971 136.009Z" fill="#21272A"/>
<path d="M195.45 263.584H408.076L381.427 164.358H168.801L195.45 263.584Z" fill="#4D5358"/>
<path d="M164.974 150.183H207.499L211.326 164.358H168.801L164.974 150.183Z" fill="#4D5358"/>
<path d="M252.009 263.584H393.759L371.079 178.534H229.329L252.009 263.584Z" fill="#21272A"/>
<path d="M190.631 192.709H218.981L215.154 178.534H186.804L190.631 192.709Z" fill="#343A3F"/>
<path d="M335.643 199.797H250.593L248.75 192.709H333.8L335.643 199.797Z" fill="#C1C7CD"/>
<path d="M363.993 199.797H349.818L347.976 192.709H362.151L363.993 199.797Z" fill="#C1C7CD"/>
<path d="M349.817 199.797H335.642L333.799 192.709H347.974L349.817 199.797Z" fill="#8A3FFC"/>
<path d="M268.595 213.972H254.42L252.577 206.885H266.752L268.595 213.972Z" fill="#A2A9B0"/>
<path d="M367.82 213.972H296.945L295.102 206.885H365.977L367.82 213.972Z" fill="#C1C7CD"/>
<path d="M296.945 213.972H268.595L266.752 206.885H295.102L296.945 213.972Z" fill="#8A3FFC"/>
<path d="M314.946 228.147H258.246L256.403 221.06H313.104L314.946 228.147Z" fill="#C1C7CD"/>
<path d="M371.648 228.147H343.298L341.455 221.06H369.805L371.648 228.147Z" fill="#C1C7CD"/>
<path d="M343.298 228.147H314.948L313.105 221.06H341.455L343.298 228.147Z" fill="#8A3FFC"/>
<path d="M290.423 242.322H262.073L260.088 235.235H288.439L290.423 242.322Z" fill="#C1C7CD"/>
<path d="M375.475 242.322H361.3L359.315 235.235H373.491L375.475 242.322Z" fill="#A2A9B0"/>
<path d="M361.3 242.322H290.425L288.44 235.235H359.315L361.3 242.322Z" fill="#8A3FFC"/>
<path d="M322.602 256.497H265.902L263.917 249.41H320.618L322.602 256.497Z" fill="#C1C7CD"/>
<path d="M379.303 256.497H365.128L363.144 249.41H377.319L379.303 256.497Z" fill="#C1C7CD"/>
<path d="M365.128 256.497H322.602L320.618 249.41H363.143L365.128 256.497Z" fill="#8A3FFC"/>
</svg>
